<svg height="60px" width="60px" id="eoils7g8F2K1" xmlns="http://www.w3.org/2000/svg" xmlnsXlink="http://www.w3.org/1999/xlink" viewBox="0 0 150 150" shape-rendering="geometricPrecision" text-rendering="geometricPrecision"><ellipse rx="61.599068" ry="58.464219" transform="matrix(.808081 0 0 0.905407 76.818542 85.081008)" fill="#5183e7" stroke-width="0"/><ellipse rx="8.070131" ry="16.440488" transform="matrix(1 0 0 0.641087 101.638874 81.832424)" fill="#d0b575" stroke-width="0"/><ellipse rx="8.070131" ry="16.440488" transform="matrix(1 0 0 0.641087 54.335201 80.195675)" fill="#d0b575" stroke-width="0"/><ellipse rx="10.783157" ry="3.999536" transform="matrix(3.826504 0 0 3.517283 77.280038 49.286836)" fill="#d01919" stroke-width="0"/><path d="M72.652446,56.715452c8.740998,4.154851,15.878394,2.367302,16.791718.826069" transform="matrix(2.144484 0 0 2.565875-99.113853-41.433994)" fill="none" stroke="#3f5787" stroke-width="0.5"/><path d="M73.33257,51.996399c-.387069,1.834594-8.847098,3.176933-7.317744,5.186906" transform="matrix(2.310855 0 0 3.161663-96.164127-73.393061)" fill="none" stroke="#3f5787" stroke-width="0.5"/><path d="M73.154972,54.701391c1.66,2.24,1.9,2.02,2.86,2.88" transform="matrix(3.53438 0.282144-.184012 2.305091-191.809834-39.149024)" fill="none" stroke="#3f5787" stroke-width="0.5"/><line x1="0.1" y1="-0.12" x2="-0.1" y2="0.888769" transform="matrix(1.49622 1.762172 0.969166-.822897 56.96642 108.620644)" fill="none" stroke="#3f5787" stroke-width="1.5"/><line x1="-4.853669" y1="14.755153" x2="4.853668" y2="-14.755153" transform="translate(86.698911 31.265682)" fill="none" stroke="#d01919" stroke-width="1.5"/><line x1="-4.853669" y1="-13.007832" x2="4.853668" y2="13.007832" transform="translate(96.258939 29.906655)" fill="none" stroke="#d01919" stroke-width="1.5"/><line x1="-4.853669" y1="14.755153" x2="4.853668" y2="-14.755153" transform="translate(54.916809 33.298257)" fill="none" stroke="#d01919" stroke-width="1.5"/><line x1="-4.853669" y1="-13.007832" x2="4.853668" y2="13.007832" transform="translate(64.476837 31.200111)" fill="none" stroke="#d01919" stroke-width="1.5"/><line x1="-6.190119" y1="21.342051" x2="6.190119" y2="-21.342051" transform="translate(69.266596 23.440433)" fill="none" stroke="#d01919" stroke-width="1.5"/><line x1="-5.912949" y1="-20.418152" x2="5.91295" y2="20.418152" transform="translate(81.184884 21.962196)" fill="none" stroke="#d01919" stroke-width="1.5"/><ellipse rx="6.097729" ry="12.380237" transform="matrix(.526838 0 0 1 59.906288 32.792844)" fill="#d01919" stroke="#d01919"/><line x1="-1.270445" y1="6.775708" x2="1.270445" y2="-6.775708" transform="translate(55.284383 36.412326)" fill="none" stroke="#d01919" stroke-width="1.5"/><line x1="2.43502" y1="5.769939" x2="-2.43502" y2="-5.769938" transform="translate(65.236204 35.618298)" fill="none" stroke="#d01919" stroke-width="1.5"/><line x1="-0.794028" y1="4.711234" x2="0.794029" y2="-4.711235" transform="translate(55.866671 38.053318)" fill="none" stroke="#d01919" stroke-width="1.5"/><line x1="1.005769" y1="4.393623" x2="-1.00577" y2="-4.393623" transform="translate(64.124565 36.571131)" fill="none" stroke="#d01919" stroke-width="1.5"/><ellipse rx="4.922975" ry="9.316599" transform="matrix(.870969 0 0 1 92.07436 33.024472)" fill="#d01919" stroke="#d01919"/><line x1="-1.21751" y1="4.922976" x2="1.21751" y2="-4.922975" transform="translate(86.780838 35.406557)" fill="none" stroke="#d01919" stroke-width="1.5"/><line x1="1.905668" y1="4.499494" x2="-1.905668" y2="-4.499494" transform="translate(97.420817 36.359391)" fill="none" stroke="#d01919" stroke-width="1.5"/><line x1="0.529352" y1="3.758401" x2="-0.529352" y2="-3.758401" transform="translate(91.597943 22.913845)" fill="none" stroke="#d01919" stroke-width="1.5"/><line x1="1.058705" y1="2.646761" x2="-1.058705" y2="-2.646761" transform="translate(96.785595 37.36516)" fill="none" stroke="#d01919" stroke-width="1.5"/><line x1="-0.423482" y1="2.646761" x2="0.423482" y2="-2.64676" transform="translate(90.433368 24.025484)" fill="none" stroke="#d01919" stroke-width="1.5"/><line x1="0.899899" y1="3.017307" x2="-0.899899" y2="-3.017307" transform="translate(92.603712 23.654938)" fill="none" stroke="#d01919" stroke-width="1.5"/><ellipse rx="1.810058" ry="18.100582" transform="translate(75.472249 22.728461)" fill="#d01919" stroke-width="0"/><ellipse rx="5.212967" ry="10.353532" transform="translate(77.716722 31.923556)" fill="#d01919" stroke-width="0"/><line x1="-3.258105" y1="15.783708" x2="3.258105" y2="-15.783708" transform="translate(71.272914 24.755726)" fill="none" stroke="#d01919" stroke-width="1.5"/><line x1="-5.430174" y1="16.218122" x2="5.430175" y2="-16.218122" transform="translate(69.680062 24.755726)" fill="none" stroke="#d01919" stroke-width="1.5"/><line x1="-1.158437" y1="15.566501" x2="1.158437" y2="-15.5665" transform="translate(72.793363 30.620315)" fill="none" stroke="#d01919" stroke-width="1.5"/><line x1="-5.140566" y1="9.412303" x2="5.140565" y2="-9.412302" transform="translate(67.942407 30.837521)" fill="none" stroke="#d01919" stroke-width="1.5"/><line x1="-3.402909" y1="11.005154" x2="3.40291" y2="-11.005154" transform="matrix(3.629797-1.408833 0.461813 1.189841 69.680062 33.733615)" fill="none" stroke="#d01919" stroke-width="1.5"/><line x1="4.452007" y1="15.909379" x2="-4.452007" y2="-15.909378" transform="translate(80.702449 24.66101)" fill="none" stroke="#d01919" stroke-width="1.5"/><line x1="-3.862771" y1="10.475311" x2="3.862771" y2="-10.475311" transform="translate(74.875557 28.785663)" fill="none" stroke="#d01919" stroke-width="1.5"/><line x1="3.469947" y1="13.683375" x2="-3.469947" y2="-13.683375" transform="translate(80.244154 26.887013)" fill="none" stroke="#d01919" stroke-width="1.5"/><line x1="-1.047531" y1="3.7973" x2="1.047531" y2="-3.7973" transform="translate(71.405611 36.511205)" fill="none" stroke="#d01919" stroke-width="1.5"/></svg>